Coordinates
version=1
nRows=12
nColumns=38
inDegrees=yes

Units are S.I. units (second, meters, Newtons, ...)
Angles are in degrees.

endheader
time	pelvis_tilt	pelvis_list	pelvis_rotation	pelvis_tx	pelvis_ty	pelvis_tz	hip_flexion_r	hip_adduction_r	hip_rotation_r	knee_angle_r	ankle_angle_r	subtalar_angle_r	mtp_angle_r	hip_flexion_l	hip_adduction_l	hip_rotation_l	knee_angle_l	ankle_angle_l	subtalar_angle_l	mtp_angle_l	lumbar_extension	lumbar_bending	lumbar_rotation	arm_flex_r	arm_add_r	arm_rot_r	elbow_flex_r	pro_sup_r	wrist_flex_r	wrist_dev_r	arm_flex_l	arm_add_l	arm_rot_l	elbow_flex_l	pro_sup_l	wrist_flex_l	wrist_dev_l
      1.70000000	     -1.34603567	      3.64511495	     -1.56385870	      0.55248563	      0.92288232	      0.21824695	     27.25311321	     -2.13382985	     -0.82150078	    -55.81925286	     -3.64316386	     -9.69667374	     17.07061773	      4.57400037	      8.05665725	      3.96003655	    -19.04334341	     10.61271700	     -0.46421261	      3.49376685	     -5.02564064	     -2.48043150	     -4.89593024	     -2.64215463	    -16.68489182	     15.23517260	     17.83265258	     86.51662706	      0.00000000	      0.00000000	      2.56809518	    -17.71996384	     19.98843506	     27.25470583	     86.51662706	      0.00000000	      0.00000000
      1.71000000	     -1.29666543	      3.50692904	     -1.33771734	      0.56539288	      0.92289438	      0.21843763	     27.80998158	     -2.20013501	     -1.23907308	    -52.86792791	     -3.15131132	    -10.01443859	     16.67010192	      3.15369856	      7.90666071	      4.27382068	    -18.22924498	     10.91393040	     -0.50728568	      3.59448591	     -5.16666753	     -2.27310286	     -5.40173394	     -2.93380660	    -16.64354369	     14.91908838	     17.24860608	     86.51662706	      0.00000000	      0.00000000	      2.94959553	    -18.08160950	     19.31508103	     29.12150102	     86.51662706	      0.00000000	      0.00000000
      1.72000000	     -1.21396177	      3.41690266	     -1.12641367	      0.57836365	      0.92271799	      0.21871206	     28.21086289	     -2.30695239	     -1.63945068	    -49.65842987	     -2.74522914	    -10.36214058	     16.22217620	      1.69119976	      7.78131830	      4.52450101	    -17.40214311	     11.20221274	     -0.46695234	      3.71616171	     -5.34088534	     -2.12715547	     -5.87212657	     -3.20661439	    -16.58183936	     14.62336717	     16.63957654	     86.51662706	      0.00000000	      0.00000000	      3.31725330	    -18.44594784	     18.64356387	     30.98404916	     86.51662706	      0.00000000	      0.00000000
      1.73000000	     -1.10172002	      3.36936333	     -0.92255771	      0.59143061	      0.92236529	      0.21908034	     28.46026815	     -2.44958219	     -2.03963189	    -46.21079233	     -2.39010948	    -10.61951561	     15.73443951	      0.19160998	      7.67797857	      4.73123091	    -16.56547605	     11.46566319	     -0.35406359	      3.85913191	     -5.54246911	     -2.03604599	     -6.31104477	     -3.46304296	    -16.49912855	     14.35710065	     16.00958255	     86.51662706	      0.00000000	      0.00000000	      3.67096310	    -18.80520047	     17.97919322	     32.82329521	     86.51662706	      0.00000000	      0.00000000
      1.74000000	     -0.96683717	      3.35387057	     -0.71867807	      0.60462486	      0.92183658	      0.21954242	     28.56844977	     -2.62116488	     -2.46429092	    -42.55383469	     -2.05408928	    -10.67006717	     15.21543256	     -1.33365689	      7.58797252	      4.91074764	    -15.73030440	     11.69358101	     -0.18023317	      4.02321619	     -5.76128634	     -1.98847900	     -6.72402421	     -3.70647127	    -16.39679045	     14.12434921	     15.36562365	     86.51662706	      0.00000000	      0.00000000	      4.00915200	    -19.15110705	     17.32700881	     34.62179716	     86.51662706	      0.00000000	      0.00000000
      1.75000000	     -0.81856405	      3.35692074	     -0.50996832	      0.61796346	      0.92114806	      0.22008749	     28.55122170	     -2.81203544	     -2.94163792	    -38.72964628	     -1.71072174	    -10.41641874	     14.67434910	     -2.86754723	      7.49761197	      5.07616735	    -14.91458477	     11.87887446	      0.04370863	      4.20768080	     -5.98435456	     -1.96987494	     -7.11584617	     -3.94031683	    -16.27788329	     13.92503662	     14.71657190	     86.51662706	      0.00000000	      0.00000000	      4.32860240	    -19.47590257	     16.69119754	     36.36474453	     86.51662706	      0.00000000	      0.00000000
      1.76000000	     -0.66736609	      3.36442127	     -0.29526130	      0.63145264	      0.92033864	      0.22070835	     28.42953003	     -3.00919529	     -3.49792909	    -34.79735927	     -1.34013917	     -9.79456483	     14.12097597	     -4.38875329	      7.39089793	      5.23679542	    -14.14172619	     12.01897869	      0.30828344	      4.41136884	     -6.19793401	     -1.96472469	     -7.48886309	     -4.16733887	    -16.14645508	     13.75618701	     14.07206734	     86.51662706	      0.00000000	      0.00000000	      4.62479703	    -19.77334741	     16.07474536	     38.04062582	     86.51662706	      0.00000000	      0.00000000
      1.77000000	     -0.52304773	      3.36451451	     -0.07630821	      0.64509527	      0.91944632	      0.22140425	     28.22912134	     -3.19593629	     -4.15133231	    -30.83526013	     -0.92928426	     -8.78461242	     13.56585148	     -5.87355103	      7.25337934	      5.39867180	    -13.43847457	     12.11510581	      0.60519667	      4.63313002	     -6.38968182	     -1.95921804	     -7.84245213	     -4.38917016	    -16.00670976	     13.61334263	     13.44153431	     86.51662706	      0.00000000	      0.00000000	      4.89264385	    -20.03951897	     15.47933672	     39.64145623	     86.51662706	      0.00000000	      0.00000000
      1.78000000	     -0.39286521	      3.34944810	      0.14353385	      0.65888877	      0.91847752	      0.22217700	     27.97992087	     -3.35303015	     -4.90600015	    -26.94071682	     -0.47186711	     -7.41587381	     13.02053789	     -7.29796052	      7.07561905	      5.56562707	    -12.83238001	     12.17040385	      0.92683781	      4.87270238	     -6.55036460	     -1.94326067	     -8.17371465	     -4.60611393	    -15.86229957	     13.49198439	     12.83339707	     86.51662706	      0.00000000	      0.00000000	      5.12732292	    -20.27303518	     14.90546615	     41.16253348	     86.51662706	      0.00000000	      0.00000000
      1.79000000	     -0.28070588	      3.31552584	      0.36041648	      0.67282195	      0.91741232	      0.22303898	     27.71460159	     -3.46233832	     -5.74758391	    -23.22734978	      0.03133349	     -5.76506390	     12.49779191	     -8.64047854	      6.85483042	      5.74037649	    -12.34939437	     12.18794144	      1.26590857	      5.13211715	     -6.67475317	     -1.91128414	     -8.47905991	     -4.81725940	    -15.71596012	     13.38878515	     12.25453225	     86.51662706	      0.00000000	      0.00000000	      5.32487860	    -20.47458071	     14.35271103	     42.60176331	     86.51662706	      0.00000000	      0.00000000
      1.80000000	     -0.18746906	      3.26205017	      0.57107259	      0.68687930	      0.91623481	      0.22401197	     27.46590110	     -3.51130817	     -6.64183497	    -19.81861510	      0.57159569	     -3.94772888	     12.01137618	     -9.88497957	      6.59446769	      5.92497179	    -12.01189253	     12.16922855	      1.61556208	      5.41753017	     -6.76151118	     -1.86186282	     -8.75594544	     -5.02097303	    -15.56958836	     13.30255249	     11.70996229	     86.51662706	      0.00000000	      0.00000000	      5.48219944	    -20.64596783	     13.82010878	     43.95866936	     86.51662706	      0.00000000	      0.00000000
      1.81000000	     -0.11170481	      3.19051616	      0.77392158	      0.70104963	      0.91495127	      0.22510481	     27.26281744	     -3.49620546	     -7.53767068	    -16.83732414	      1.13100275	     -2.10443353	     11.57530721	    -11.02265656	      6.30241311	      6.12016146	    -11.83711529	     12.11348440	      1.97021818	      5.74119802	     -6.81206375	     -1.79672573	     -9.00403110	     -5.21573261	    -15.42472149	     13.23475639	     11.20277464	     86.51662706	      0.00000000	      0.00000000	      5.59629178	    -20.78915342	     13.30657305	     45.23325013	     86.51662706	      0.00000000	      0.00000000
